<?xml version="1.0" encoding="UTF-8"?>
<svg xmlns="http://www.w3.org/2000/svg" xmlns:xlink="http://www.w3.org/1999/xlink" width="119pt" height="114pt" viewBox="0 0 119 114" version="1.1">
<g id="surface1">
<path style="fill:none;stroke-width:28.34824;stroke-linecap:round;stroke-linejoin:round;stroke:rgb(0%,0%,0%);stroke-opacity:1;stroke-miterlimit:10;" d="M 80.725264 30.242321 L 228.017503 115.281083 C 268.690262 138.763387 320.70927 124.827818 344.193458 84.151795 C 364.021425 49.808566 366.473755 6.389793 337.60235 -17.838672 " transform="matrix(0.125,0.217461,-0.216507,0.125551,0,0)"/>
<path style="fill:none;stroke-width:28.34824;stroke-linecap:round;stroke-linejoin:round;stroke:rgb(0%,0%,0%);stroke-opacity:1;stroke-miterlimit:10;" d="M 337.60235 -17.838672 L 411.255205 24.684598 C 445.151416 44.254481 488.488419 32.631473 508.058576 -1.265212 C 524.277197 -29.356837 529.856164 -64.439214 506.66829 -83.888815 " transform="matrix(0.125,0.217461,-0.216507,0.125551,0,0)"/>
<path style="fill:none;stroke-width:28.34824;stroke-linecap:round;stroke-linejoin:round;stroke:rgb(0%,0%,0%);stroke-opacity:1;stroke-miterlimit:10;" d="M 270.627522 -213.61701 C 244.58564 -228.652218 213.631552 -232.721267 184.590054 -224.951038 C 155.540744 -217.167278 130.772287 -198.161561 115.733344 -172.113209 C 100.702214 -146.07839 96.627151 -115.125399 104.411005 -86.076115 C 112.202672 -57.040361 131.20373 -32.267947 157.245612 -17.232739 C 183.287495 -2.197531 214.241583 1.871519 243.269608 -5.906488 C 272.318918 -13.690249 297.087375 -32.695966 312.118505 -58.730786 C 327.157448 -84.779137 331.232511 -115.732127 323.448657 -144.781412 C 315.670463 -173.809387 296.669404 -198.581802 270.627522 -213.61701 Z " transform="matrix(0.125,0.217461,-0.216507,0.125551,0,0)"/>
<path style="fill:none;stroke-width:28.34824;stroke-linecap:round;stroke-linejoin:round;stroke:rgb(0%,0%,0%);stroke-opacity:1;stroke-miterlimit:10;" d="M 439.67999 -279.67493 C 413.638108 -294.710138 382.684019 -298.779188 353.648182 -290.987649 C 324.606684 -283.217421 299.838227 -264.211703 284.799284 -238.163352 C 269.768154 -212.128532 265.693091 -181.175542 273.476945 -152.126257 C 281.247327 -123.084751 300.256198 -98.325868 326.29808 -83.29066 C 352.339962 -68.255452 383.286238 -64.17287 412.335548 -71.956631 C 441.384858 -79.740391 466.153315 -98.746109 481.184445 -124.780928 C 496.223388 -150.829279 500.298451 -181.78227 492.506785 -210.818023 C 484.722931 -239.867308 465.721872 -264.639723 439.67999 -279.67493 Z " transform="matrix(0.125,0.217461,-0.216507,0.125551,0,0)"/>
</g>
</svg>
