<?xml version="1.0"?>
<!-- Created by MetaPost 1.504 on 2013.06.24:1002 -->
<svg version="1.1" xmlns="http://www.w3.org/2000/svg" xmlns:xlink="http://www.w3.org/1999/xlink" width="476.21931" height="453.54068" viewBox="0 0 476.21931 453.54068">
<!-- Original BoundingBox: -419.52725 -269.29045 56.69206 184.25023 -->
  <g transform="matrix(0.5,0.86603,-0.86603,0.5,0,0)">
    <path d="M80.73018 30.24265L228.02303 115.28197C268.69656 138.76479,320.70555 124.82895,344.18837 84.15541C364.01987 49.80614,366.47723 6.38545,337.6092 -17.83751" style="stroke:rgb(0%,0%,0%); stroke-width: 28.34824;stroke-linecap: round;stroke-linejoin: round;stroke-miterlimit: 10;fill: none;"></path>
  </g>
  <g transform="matrix(0.5,0.86603,-0.86603,0.5,0,0)">
    <path d="M337.6092 -17.83751L411.25609 24.6824C445.15077 44.25145,488.49173 32.63824,508.06079 -1.25644C524.28018 -29.34933,529.8537 -64.43512,506.67026 -83.8882" style="stroke:rgb(0%,0%,0%); stroke-width: 28.34824;stroke-linecap: round;stroke-linejoin: round;stroke-miterlimit: 10;fill: none;"></path>
  </g>
  <g transform="matrix(0.5,0.86603,-0.86603,0.5,0,0)">
    <path d="M270.62427 -213.61992C244.58063 -228.65619,213.63274 -232.72748,184.58705 -224.94466C155.54135 -217.16187,130.77539 -198.16202,115.73912 -172.11836C100.70285 -146.0747,96.63156 -115.12683,104.41438 -86.08113C112.19717 -57.03543,131.19702 -32.26947,157.24068 -17.23322C183.28433 -2.19695,214.23221 1.87433,243.2779 -5.90846C272.3236 -13.69127,297.08955 -32.69112,312.12582 -58.73476C327.1621 -84.77841,331.23338 -115.7263,323.45056 -144.77199C315.66777 -173.81769,296.66792 -198.58365,270.62427 -213.61992Z" style="stroke:rgb(0%,0%,0%); stroke-width: 28.34824;stroke-linecap: round;stroke-linejoin: round;stroke-miterlimit: 10;fill: none;"></path>
  </g>
  <g transform="matrix(0.5,0.86603,-0.86603,0.5,0,0)">
    <path d="M439.68344 -279.67169C413.63979 -294.70795,382.69191 -298.77925,353.64621 -290.99643C324.60051 -283.21362,299.83456 -264.21379,284.7983 -238.17014C269.76202 -212.12648,265.69073 -181.1786,273.47356 -152.1329C281.25635 -123.0872,300.2562 -98.32124,326.29985 -83.28497C352.34349 -68.2487,383.29138 -64.17741,412.33707 -71.96024C441.38277 -79.74304,466.14873 -98.74287,481.185 -124.78653C496.22127 -150.83018,500.29256 -181.77806,492.50974 -210.82376C484.72694 -239.86946,465.7271 -264.63542,439.68344 -279.67169Z" style="stroke:rgb(0%,0%,0%); stroke-width: 28.34824;stroke-linecap: round;stroke-linejoin: round;stroke-miterlimit: 10;fill: none;"></path>
  </g>
</svg>
