<?xml version="1.0"?>
<!-- Created by MetaPost 1.504 on 2013.01.03:2238 -->
<svg version="1.1" xmlns="http://www.w3.org/2000/svg" xmlns:xlink="http://www.w3.org/1999/xlink" width="839.0545" height="538.5809" viewBox="0 0 839.0545 538.5809">
<!-- Original BoundingBox: -419.52725 -269.29045 419.52725 269.29045 -->
  <g transform="matrix(0.5,0.86603,-0.86603,0.5,0,0)">
    <path d="M154.37708 72.76257L301.66992 157.8019C342.34344 181.28471,394.35245 167.34888,417.83525 126.67534C437.66676 92.32607,440.12411 48.90538,411.2561 24.6824" style="stroke:rgb(0%,0%,0%); stroke-width: 28.34824;stroke-linecap: round;stroke-linejoin: round;stroke-miterlimit: 10;fill: none;"></path>
  </g>
  <g transform="matrix(0.5,0.86603,-0.86603,0.5,0,0)">
    <path d="M411.2561 24.6824L484.90297 67.20233C518.79767 86.7714,562.13861 75.15817,581.70767 41.26347C597.92706 13.1706,603.5006 -21.91518,580.31715 -41.36826" style="stroke:rgb(0%,0%,0%); stroke-width: 28.34824;stroke-linecap: round;stroke-linejoin: round;stroke-miterlimit: 10;fill: none;"></path>
  </g>
  <g transform="matrix(-0.5,-0.86603,0.86603,-0.5,0,0)">
    <path d="M-731.5725 530.11476L-584.27965 615.15408C-543.60611 638.63689,-491.59712 624.70105,-468.1143 584.02751C-448.2828 549.67825,-445.82544 506.25757,-474.69347 482.03459" style="stroke:rgb(0%,0%,0%); stroke-width: 28.34824;stroke-linecap: round;stroke-linejoin: round;stroke-miterlimit: 10;fill: none;"></path>
  </g>
  <g transform="matrix(-0.5,-0.86603,0.86603,-0.5,0,0)">
    <path d="M-474.69347 482.03459L-401.04659 524.5545C-367.15189 544.12357,-323.81094 532.51035,-304.24188 498.61566C-288.02249 470.52277,-282.44897 435.43698,-305.63242 415.9839" style="stroke:rgb(0%,0%,0%); stroke-width: 28.34824;stroke-linecap: round;stroke-linejoin: round;stroke-miterlimit: 10;fill: none;"></path>
  </g>
  <g transform="matrix(0.5,0.86603,-0.86603,0.5,0,0)">
    <path d="M344.27116 -171.09999C318.22751 -186.13626,287.27963 -190.20755,258.23393 -182.42473C229.18823 -174.64192,204.42227 -155.64209,189.386 -129.59843C174.34975 -103.55478,170.27844 -72.6069,178.06126 -43.5612C185.84407 -14.5155,204.8439 10.25044,230.88756 25.28671C256.93121 40.32298,287.87909 44.39427,316.92479 36.61145C345.97049 28.82864,370.73645 9.82881,385.77272 -16.21483C400.80899 -42.25848,404.88028 -73.20636,397.09746 -102.25206C389.31465 -131.29776,370.31482 -156.06372,344.27116 -171.09999Z" style="stroke:rgb(0%,0%,0%); stroke-width: 28.34824;stroke-linecap: round;stroke-linejoin: round;stroke-miterlimit: 10;fill: none;"></path>
  </g>
  <g transform="matrix(0.5,0.86603,-0.86603,0.5,0,0)">
    <path d="M513.33034 -237.15175C487.28668 -252.18802,456.3388 -256.25931,427.2931 -248.47649C398.2474 -240.6937,373.48145 -221.69385,358.44518 -195.65019C343.4089 -169.60655,339.33762 -138.65866,347.12044 -109.61298C354.90324 -80.56728,373.90308 -55.80132,399.94673 -40.76505C425.99039 -25.72878,456.93826 -21.65749,485.98396 -29.4403C515.02966 -37.2231,539.79562 -56.22295,554.8319 -82.2666C569.86816 -108.31026,573.93945 -139.25813,566.15663 -168.30383C558.37383 -197.34953,539.374 -222.11548,513.33034 -237.15175Z" style="stroke:rgb(0%,0%,0%); stroke-width: 28.34824;stroke-linecap: round;stroke-linejoin: round;stroke-miterlimit: 10;fill: none;"></path>
  </g>
  <g transform="matrix(0.5,0.86603,-0.86603,0.5,0,0)">
    <path d="M486.00282 -416.58713C459.95918 -431.62338,429.01129 -435.69467,399.9656 -427.91187C370.9199 -420.12906,346.15395 -401.12923,331.11768 -375.08557C316.0814 -349.04192,312.01012 -318.09402,319.79294 -289.04834" style="stroke:rgb(0%,0%,0%); stroke-width: 28.34824;stroke-linecap: round;stroke-linejoin: round;stroke-miterlimit: 10;fill: none;"></path>
  </g>
  <g transform="matrix(0.5,0.86603,-0.86603,0.5,0,0)">
    <path d="M458.65645 -208.87567C487.70215 -216.65846,512.46811 -235.65831,527.50438 -261.70197C542.54065 -287.74562,546.61194 -318.6935,538.82912 -347.7392C531.04633 -376.7849,512.04648 -401.55086,486.00282 -416.58713" style="stroke:rgb(0%,0%,0%); stroke-width: 28.34824;stroke-linecap: round;stroke-linejoin: round;stroke-miterlimit: 10;fill: none;"></path>
  </g>
  <g transform="matrix(0.5,0.86603,-0.86603,0.5,0,0)">
    <path d="M569.02477 -493.96362C539.97906 -486.18083,515.21312 -467.18098,500.17685 -441.13733C485.14058 -415.09367,481.06929 -384.1458,488.85211 -355.1001C496.6349 -326.0544,515.63475 -301.28845,541.67839 -286.25218C567.72205 -271.21591,598.66994 -267.14462,627.71562 -274.92744C656.76132 -282.71024,681.52728 -301.71008,696.56355 -327.75374C711.59982 -353.79738,715.67111 -384.74527,707.88829 -413.79095" style="stroke:rgb(0%,0%,0%); stroke-width: 28.34824;stroke-linecap: round;stroke-linejoin: round;stroke-miterlimit: 10;fill: none;"></path>
  </g>
  <g transform="matrix(0.5,0.86603,-0.86603,0.5,0,0)">
    <path d="M319.79056 -289.0477L389.22383 -248.9605" style="stroke:rgb(0%,0%,0%); stroke-width: 28.34824;stroke-linecap: round;stroke-linejoin: round;stroke-miterlimit: 10;fill: none;"></path>
  </g>
  <g transform="matrix(0.5,0.86603,-0.86603,0.5,0,0)">
    <path d="M569.02414 -493.966L598.3702 -384.44553" style="stroke:rgb(0%,0%,0%); stroke-width: 28.34824;stroke-linecap: round;stroke-linejoin: round;stroke-miterlimit: 10;fill: none;"></path>
  </g>
</svg>
